<svg width="34" height="34" viewBox="0 0 34 34" fill="none" xmlns="http://www.w3.org/2000/svg">
<path d="M21.6715 7.14497H20.1715H21.6715ZM20.1715 7.14497C20.1715 8.08967 19.7798 9.00989 19.0594 9.6991L21.1331 11.8669C22.4299 10.6264 23.1715 8.92933 23.1715 7.14497H20.1715ZM19.0594 9.6991C18.3366 10.3905 17.3428 10.7899 16.2932 10.7899V13.7899C18.0965 13.7899 19.8386 13.1053 21.1331 11.8669L19.0594 9.6991ZM16.2932 10.7899C15.2437 10.7899 14.2499 10.3905 13.5271 9.6991L11.4534 11.8669C12.7479 13.1053 14.49 13.7899 16.2932 13.7899V10.7899ZM13.5271 9.6991C12.8067 9.00989 12.415 8.08967 12.415 7.14497H9.41498C9.41498 8.92933 10.1566 10.6264 11.4534 11.8669L13.5271 9.6991ZM12.415 7.14497C12.415 6.20027 12.8067 5.28005 13.5271 4.59083L11.4534 2.42302C10.1566 3.66354 9.41498 5.36061 9.41498 7.14497H12.415ZM13.5271 4.59083C14.2499 3.89946 15.2437 3.5 16.2932 3.5V0.5C14.49 0.5 12.7479 1.18466 11.4534 2.42302L13.5271 4.59083ZM16.2932 3.5C17.3428 3.5 18.3366 3.89946 19.0594 4.59083L21.1331 2.42302C19.8386 1.18466 18.0965 0.5 16.2932 0.5V3.5ZM19.0594 4.59083C19.7798 5.28005 20.1715 6.20027 20.1715 7.14497H23.1715C23.1715 5.36061 22.4299 3.66354 21.1331 2.42302L19.0594 4.59083ZM30.8967 29.3827C30.6383 29.4651 30.0398 29.5807 29.0762 29.7037C28.1492 29.8221 26.9782 29.9364 25.6401 30.0398C22.9655 30.2464 19.6666 30.4059 16.3984 30.4697C13.1253 30.5336 9.91371 30.5009 7.40439 30.3283C6.1456 30.2417 5.10128 30.1223 4.32886 29.9724C3.94171 29.8972 3.65708 29.8208 3.46324 29.751C3.23944 29.6704 3.25496 29.6402 3.34666 29.7279L1.27288 31.8957C1.63349 32.2407 2.08599 32.4436 2.44676 32.5735C2.83749 32.7143 3.28502 32.8257 3.75714 32.9174C4.70323 33.1011 5.88585 33.2309 7.19854 33.3212C9.83219 33.5023 13.1417 33.5339 16.457 33.4692C19.7772 33.4043 23.1339 33.2423 25.8711 33.0309C27.239 32.9252 28.463 32.8064 29.4562 32.6796C30.4128 32.5574 31.2597 32.4158 31.8081 32.2409L30.8967 29.3827ZM3.34666 29.7279C3.54414 29.9168 3.48305 30.1065 3.50528 29.9606C3.53161 29.7879 3.64607 29.4528 3.94895 28.9573C4.54415 27.9836 5.64222 26.7524 7.10011 25.5301C10.0536 23.0539 14.0198 20.9929 17.3689 20.9929V17.9929C12.9948 17.9929 8.35584 20.5624 5.17269 23.2312C3.56228 24.5813 2.20921 26.0512 1.38925 27.3927C0.984556 28.0548 0.650441 28.7809 0.539534 29.5086C0.424538 30.2631 0.537569 31.1923 1.27288 31.8957L3.34666 29.7279ZM17.3689 20.9929C20.6686 20.9929 24.6178 23.2616 27.451 25.87C28.8502 27.1582 29.8313 28.3986 30.274 29.2815C30.5082 29.7485 30.4976 29.9308 30.5009 29.895C30.5053 29.8457 30.5316 29.7139 30.6423 29.576C30.753 29.4381 30.8704 29.3911 30.8967 29.3827L31.8081 32.2409C32.2378 32.1039 32.6591 31.8559 32.9816 31.4542C33.3041 31.0526 33.4499 30.5942 33.4887 30.165C33.5606 29.3695 33.2779 28.5791 32.9558 27.9367C32.2859 26.6009 31.0175 25.0758 29.4829 23.663C26.4483 20.8691 21.7924 17.9929 17.3689 17.9929V20.9929Z" fill="#ABABAB"/>
</svg>
