<svg width="30" height="30" viewBox="0 0 30 30" fill="none" xmlns="http://www.w3.org/2000/svg">
<path d="M27.6877 29.617C27.9451 29.8655 28.2897 30.0031 28.6475 29.9999C29.0052 29.9968 29.3474 29.8533 29.6004 29.6004C29.8533 29.3474 29.9968 29.0052 29.9999 28.6475C30.0031 28.2897 29.8655 27.9451 29.617 27.6877L27.6877 29.617ZM21.8304 12.2796C21.8304 14.8126 20.8241 17.2419 19.033 19.033C17.2419 20.8241 14.8126 21.8304 12.2796 21.8304V24.5592C15.5363 24.5592 18.6597 23.2654 20.9626 20.9626C23.2654 18.6597 24.5592 15.5363 24.5592 12.2796H21.8304ZM12.2796 21.8304C9.74656 21.8304 7.31728 20.8241 5.52616 19.033C3.73504 17.2419 2.7288 14.8126 2.7288 12.2796H0C0 15.5363 1.29374 18.6597 3.59661 20.9626C5.89948 23.2654 9.02284 24.5592 12.2796 24.5592V21.8304ZM2.7288 12.2796C2.7288 9.74656 3.73504 7.31728 5.52616 5.52616C7.31728 3.73504 9.74656 2.7288 12.2796 2.7288V0C9.02284 0 5.89948 1.29374 3.59661 3.59661C1.29374 5.89948 0 9.02284 0 12.2796H2.7288ZM12.2796 2.7288C14.8126 2.7288 17.2419 3.73504 19.033 5.52616C20.8241 7.31728 21.8304 9.74656 21.8304 12.2796H24.5592C24.5592 9.02284 23.2654 5.89948 20.9626 3.59661C18.6597 1.29374 15.5363 0 12.2796 0V2.7288ZM18.8191 20.7484L27.6877 29.617L29.617 27.6877L20.7484 18.8191L18.8191 20.7484Z" fill="#ABABAB"/>
</svg>
